<?xml version="1.0" encoding="UTF-8" standalone="no"?>
<!-- Created with Inkscape (http://www.inkscape.org/) -->

<svg
   width="70.286697mm"
   height="140.69124mm"
   viewBox="0 0 70.286697 140.69124"
   version="1.1"
   id="svg5"
   xml:space="preserve"
   xmlns:inkscape="http://www.inkscape.org/namespaces/inkscape"
   xmlns:sodipodi="http://sodipodi.sourceforge.net/DTD/sodipodi-0.dtd"
   xmlns="http://www.w3.org/2000/svg"
   xmlns:svg="http://www.w3.org/2000/svg"><sodipodi:namedview
     id="namedview7"
     pagecolor="#ffffff"
     bordercolor="#000000"
     borderopacity="0.25"
     inkscape:showpageshadow="2"
     inkscape:pageopacity="0.0"
     inkscape:pagecheckerboard="0"
     inkscape:deskcolor="#d1d1d1"
     inkscape:document-units="mm"
     showgrid="false" /><defs
     id="defs2" /><g
     inkscape:label="Calque 1"
     inkscape:groupmode="layer"
     id="layer1"
     transform="translate(-18.845063,-88.161809)"><path
       style="fill:#aecb7f;stroke-width:0.264583"
       d="m 18.871742,228.69348 c 0,-0.16811 1.13316,-0.34857 2.84427,-0.45296 10.87614,-0.66353 18.97874,-2.75528 28.24427,-7.2915 10.76319,-5.26944 20.62047,-14.0207 27.26256,-24.20361 12.75857,-19.56 14.95334,-43.94239 5.89456,-65.48438 -6.23099,-14.81744 -18.13604,-27.5767 -32.55061,-34.886164 -9.13483,-4.632167 -17.8171,-6.91603 -28.85078,-7.589164 -1.70595,-0.104075 -2.84427,-0.285057 -2.84427,-0.452212 0,-0.19011 1.08498,-0.221412 3.41354,-0.09848 33.70121,1.779166 61.02569,26.54494 66.21344,60.0131 0.84405,5.44532 0.84405,15.08469 0,20.53001 -4.82443,31.12429 -29.12057,55.1902 -60.00185,59.43326 -4.08917,0.56184 -9.62513,0.83913 -9.62513,0.4821 z m 0,-5.02341 c 0,-0.29407 0.30552,-1.20202 0.67893,-2.01766 2.40705,-5.25768 2.59134,-11.90418 0.47053,-16.9695 -0.36557,-0.87313 -0.79264,-1.89581 -0.94904,-2.27264 -0.2394,-0.57679 -0.13425,-1.03702 0.66496,-2.91041 2.37776,-5.57364 2.37776,-11.57693 0,-17.15057 -0.79921,-1.8734 -0.90436,-2.33362 -0.66496,-2.91042 0.1564,-0.37682 0.58278,-1.39951 0.94751,-2.27263 2.05404,-4.91721 1.97364,-10.78432 -0.22302,-16.27471 l -0.95159,-2.37842 0.95501,-2.38698 c 1.34359,-3.35817 1.81477,-6.09902 1.63646,-9.51927 -0.1647,-3.15951 -0.63753,-5.16216 -1.83249,-7.76153 -0.76516,-1.66444 -0.80325,-1.87508 -0.47838,-2.64583 0.19413,-0.46059 0.76808,-2.02806 1.27545,-3.48326 1.60357,-4.59928 1.45835,-10.16161 -0.37991,-14.55209 -0.36557,-0.87313 -0.79264,-1.89581 -0.94904,-2.27264 -0.2394,-0.57679 -0.13425,-1.03701 0.66496,-2.91041 2.36102,-5.53439 2.3759,-11.58025 0.042,-17.05284 -1.39411,-3.268907 -1.49522,-3.141172 2.31032,-2.918578 9.26433,0.541888 17.38855,2.653276 25.48962,6.624446 6.92188,3.393122 12.18908,7.153672 17.60355,12.568142 10.19742,10.19742 16.58655,23.0015 18.6859,37.4473 0.63508,4.37007 0.63508,13.35701 0,17.72708 -2.82708,19.45337 -13.68498,36.20629 -30.33632,46.80668 -1.09141,0.6948 -3.77031,2.13874 -5.95313,3.20876 -8.10107,3.97117 -16.22529,6.08256 -25.48962,6.62445 -3.11442,0.18217 -3.21767,0.17105 -3.21767,-0.34647 z m 8.52372,-0.74435 c 8.90377,-1.22364 17.71764,-4.32577 25.30501,-8.90638 6.16172,-3.71991 13.37666,-10.20862 17.70655,-15.92427 2.20391,-2.90926 2.60341,-3.69553 1.21239,-2.38614 -1.68155,1.58287 -3.48254,2.85658 -5.37613,3.80215 -2.68927,1.34291 -4.16791,1.79729 -7.22477,2.22019 -1.42089,0.19657 -2.62243,0.40532 -2.67009,0.46389 -0.0477,0.0586 -0.56666,0.76134 -1.15332,1.56171 -3.73122,5.09043 -9.25596,8.2553 -15.50199,8.8804 l -1.80051,0.1802 -1.40155,1.75659 c -1.65444,2.07353 -3.72011,4.09727 -5.26508,5.15819 -1.41976,0.97495 -5.01208,2.67542 -6.46725,3.06136 -1.12938,0.29954 -1.45926,0.54242 -0.7367,0.54242 0.21328,0 1.73132,-0.18464 3.37344,-0.41031 z m -3.34052,-0.38949 c 3.78907,-0.96902 7.12734,-2.84318 9.86431,-5.53798 1.65766,-1.63212 3.35732,-3.92058 3.1017,-4.1762 -0.33069,-0.3307 -5.54109,0.74733 -7.44708,1.5408 -2.74148,1.14128 -5.5049,3.01865 -7.40624,5.03153 -1.5402,1.63056 -2.76672,3.19079 -2.76672,3.51948 0,0.34496 2.6783,0.12764 4.65403,-0.37763 z m 1.1668,-6.2578 c 1.91193,-1.29999 4.31865,-2.41924 6.67208,-3.10284 1.97271,-0.57302 2.11223,-0.65464 1.39771,-0.81767 -4.45083,-1.01549 -7.85087,-2.85774 -11.17864,-6.05696 -0.76399,-0.73446 -1.38907,-1.26921 -1.38907,-1.18832 0,0.0809 0.25042,1.08886 0.55649,2.23992 0.776,2.91836 0.776,7.61733 0,10.53569 -0.30607,1.15107 -0.55649,2.1522 -0.55649,2.22475 0,0.0726 0.74414,-0.5784 1.65365,-1.44655 0.9095,-0.86816 2.18943,-1.94276 2.84427,-2.38802 z m 11.90625,-4.01544 c 0,-0.34178 -2.46742,-3.49944 -3.47599,-4.44835 -1.62408,-1.52803 -4.78594,-3.51323 -6.88463,-4.32257 -2.05107,-0.79097 -6.9768,-1.80056 -7.28435,-1.49301 -0.21566,0.21566 1.04739,2.08893 2.39246,3.54833 3.21786,3.49135 8.12972,6.04357 12.78144,6.64127 2.53384,0.32557 2.47107,0.32369 2.47107,0.0743 z m 5.29167,-0.47875 c 3.91273,-0.80168 8.82874,-3.69188 11.27349,-6.62787 1.22826,-1.47506 2.22026,-2.86331 2.22026,-3.10713 0,-0.30847 -3.2637,0.17751 -5.50531,0.81977 -3.57629,1.02466 -6.10687,2.48045 -8.87179,5.10372 -1.5848,1.50362 -3.34999,3.71402 -3.34999,4.19493 0,0.32013 1.43305,0.19033 4.23334,-0.38342 z m -3.75605,-1.87581 c 0.42918,-1.12779 0.943,-2.70537 1.14181,-3.50573 0.46966,-1.89068 0.46966,-7.36974 0,-9.26042 -0.48205,-1.94056 -1.86902,-5.55625 -2.13136,-5.55625 -0.27563,0 -1.43729,2.63096 -2.04441,4.63021 -0.67608,2.22633 -0.68531,8.53868 -0.016,10.96268 0.54419,1.97097 1.75504,4.78003 2.06044,4.78003 0.11507,0 0.56037,-0.92274 0.98955,-2.05052 z m -3.42936,-2.74455 c -0.80154,-3.00163 -0.81211,-7.91387 -0.0233,-10.81535 0.29673,-1.0914 0.51605,-2.01019 0.48738,-2.04174 -0.0287,-0.0316 -0.78891,0.64374 -1.68943,1.50065 -2.35615,2.24203 -5.24004,3.94103 -8.59345,5.0627 l -2.87714,0.96237 1.27555,0.31237 c 3.847,0.94209 7.74351,3.12347 10.37827,5.81007 0.81433,0.83037 1.51511,1.49076 1.55728,1.46754 0.0422,-0.0232 -0.18967,-1.0396 -0.5152,-2.25861 z m 8.82766,-1.77341 c 1.88663,-1.28706 4.74832,-2.57932 6.88894,-3.11086 l 1.91985,-0.47671 -1.32292,-0.35587 c -4.11555,-1.10709 -7.23449,-2.7929 -10.09302,-5.45536 -1.07004,-0.99664 -1.94552,-1.75983 -1.94552,-1.69597 0,0.0639 0.24468,1.05788 0.54373,2.20895 0.89357,3.43937 0.72758,8.0579 -0.44133,12.2793 -0.14842,0.536 0.13815,0.35747 1.51087,-0.94121 0.93171,-0.88147 2.25444,-1.98499 2.9394,-2.45227 z m -20.23162,-4.43387 c 3.62739,-0.80403 7.50903,-2.98737 10.24452,-5.76232 1.65548,-1.67935 3.22981,-3.78439 3.00124,-4.01296 -0.27894,-0.27895 -4.42198,0.47544 -6.49102,1.18193 -2.65801,0.90759 -5.24309,2.42161 -7.32842,4.29205 -1.50698,1.3517 -3.8557,4.25039 -3.8557,4.75853 0,0.28429 2.02888,0.0748 4.42938,-0.45723 z m 32.08312,0.53283 c 0,-0.38749 -1.8194,-2.72697 -3.175,-4.08257 -1.91214,-1.91213 -3.456,-2.97114 -6.17186,-4.23354 -2.92364,-1.35899 -8.38023,-2.52364 -8.38023,-1.78867 0,0.47438 1.77536,2.69363 3.34999,4.1876 3.32606,3.15567 6.67345,4.83834 11.29247,5.67651 2.13703,0.38778 3.08463,0.46172 3.08463,0.24067 z m 5.55625,-0.5621 c 2.49429,-0.58064 6.20629,-2.41629 8.31023,-4.10957 1.6372,-1.31763 4.91894,-5.02536 4.91894,-5.55744 0,-0.29445 -2.68395,0.0433 -5.02709,0.63253 -3.58807,0.90235 -6.50983,2.53728 -9.35001,5.23196 -1.63075,1.54722 -3.34999,3.71768 -3.34999,4.22922 0,0.36082 1.8818,0.1823 4.49792,-0.4267 z m -4.02063,-1.86682 c 1.26716,-3.3298 1.50964,-4.68795 1.47618,-8.26823 -0.0228,-2.43587 -0.17505,-3.84089 -0.57799,-5.33244 -0.59779,-2.21277 -1.80117,-4.81691 -2.13155,-4.61272 -0.34489,0.21316 -1.58212,3.60311 -2.03515,5.57623 -0.60071,2.61631 -0.55158,7.13407 0.10506,9.6606 0.60015,2.30918 1.74806,5.02708 2.1232,5.02708 0.14295,0 0.61106,-0.92273 1.04025,-2.05052 z m -32.88875,-3.95945 c 2.21205,-1.6879 5.56799,-3.19228 8.73125,-3.914 0.71452,-0.16303 0.575,-0.24465 -1.39771,-0.81767 -3.76663,-1.0941 -6.65784,-2.76231 -9.51635,-5.49086 -0.90951,-0.86815 -1.65365,-1.5191 -1.65365,-1.44655 0,0.0726 0.25042,1.07368 0.55649,2.22475 0.776,2.91836 0.776,7.61733 0,10.53569 -0.30607,1.15106 -0.55649,2.15903 -0.55649,2.23992 0,0.0809 0.62508,-0.45386 1.38907,-1.18832 0.76398,-0.73447 1.86531,-1.6988 2.44739,-2.14296 z m 29.90638,2.90112 c -1.23325,-3.16448 -1.45469,-9.25995 -0.45882,-12.63005 0.30039,-1.01655 0.49651,-1.89793 0.43582,-1.95862 -0.0607,-0.0607 -0.37018,0.21998 -0.68775,0.62371 -1.86126,2.36621 -7.07309,5.49674 -10.61818,6.37791 -0.98751,0.24545 -1.74861,0.49314 -1.69133,0.55042 0.0573,0.0573 0.97793,0.34628 2.0459,0.64223 3.51895,0.97515 6.73935,2.83535 9.24611,5.34082 1.52239,1.52162 2.03164,1.83207 1.72825,1.05358 z m 9.40656,-4.10166 c 1.78173,-1.04823 4.34445,-2.10138 6.3266,-2.59991 l 1.18954,-0.29918 -2.71203,-0.88732 c -3.44389,-1.12676 -5.96436,-2.60047 -8.39271,-4.90717 -1.05553,-1.00265 -1.98212,-1.82299 -2.0591,-1.82299 -0.077,0 0.0998,0.74414 0.39284,1.65364 0.84088,2.60988 0.9541,7.85743 0.23451,10.86881 -0.30702,1.2848 -0.55821,2.39789 -0.55821,2.47353 0,0.0756 0.87548,-0.67789 1.94552,-1.67453 1.07003,-0.99664 2.7049,-2.25884 3.63304,-2.80488 z m -26.74523,-3.26583 c 0,-0.0867 -0.26214,-0.53316 -0.58253,-0.99219 -2.81351,-4.0309 -6.81227,-6.9427 -11.48245,-8.36122 -2.12597,-0.64575 -5.6621,-1.09945 -5.6621,-0.72648 0,0.4583 1.80098,2.69987 3.34999,4.16953 3.2744,3.10667 6.69669,4.86124 11.0698,5.67539 2.06461,0.38437 3.30729,0.47266 3.30729,0.23497 z m 6.08542,-0.6667 c 4.35769,-1.16297 8.4581,-3.86265 11.21142,-7.38151 0.81872,-1.04636 1.48858,-1.9866 1.48858,-2.08943 0,-0.26746 -3.29914,0.12162 -5.19344,0.61249 -3.41148,0.884 -6.40819,2.58811 -9.28733,5.28131 -0.91235,0.85343 -1.65882,1.43092 -1.65882,1.28332 0,-0.44064 2.90487,-2.96752 4.95111,-4.30686 1.78014,-1.16517 5.8856,-2.88866 6.90283,-2.89783 0.24705,-0.002 0.62778,-0.11947 0.84606,-0.26053 0.33464,-0.21626 0.32002,-0.25712 -0.0933,-0.26054 -1.00305,-0.008 -5.31372,-1.63555 -7.10693,-2.68284 -1.02041,-0.59596 -2.73484,-1.91904 -3.80984,-2.94018 -1.075,-1.02115 -1.95455,-1.74405 -1.95455,-1.60644 0,0.13761 0.17414,0.83736 0.38698,1.555 1.00055,3.37358 1.00073,8.25435 4.2e-4,11.69524 -0.23112,0.79504 -0.35549,1.61422 -0.27638,1.82039 0.0791,0.20617 -0.21116,0.86492 -0.64505,1.46389 -0.43388,0.59897 -0.78889,1.20396 -0.78889,1.34441 0,0.34872 2.56398,0.0275 5.02709,-0.62989 z m 31.03735,-0.017 c -0.75612,-1.33081 -3.7508,-4.39906 -5.53904,-5.67513 -2.04014,-1.45581 -4.61521,-2.63518 -7.19353,-3.2946 -1.87044,-0.47837 -4.54645,-0.68849 -4.54645,-0.35697 0,0.47393 1.83379,2.67178 3.67214,4.40116 2.09334,1.96928 5.30172,3.9049 7.80025,4.70592 1.2152,0.38958 4.49534,1.00336 5.54205,1.03702 l 0.74256,0.0239 -0.47798,-0.84126 z m -35.52349,-1.8707 c 2.15591,-5.57583 1.98224,-12.14899 -0.44771,-16.94425 l -0.68565,-1.35308 -0.49089,0.91351 c -0.26998,0.50243 -0.81478,1.86601 -1.21066,3.03017 -0.65756,1.9337 -0.72103,2.47118 -0.73426,6.21771 -0.0115,3.24975 0.086,4.43058 0.46957,5.68855 0.61134,2.00492 1.77162,4.6302 2.04639,4.6302 0.11507,0 0.58901,-0.98226 1.05321,-2.18281 z m 37.2777,0.52917 c 2.34956,-5.22373 2.30634,-12.04836 -0.10971,-17.32571 -0.36058,-0.7876 -0.76948,-1.36162 -0.90867,-1.2756 -0.37619,0.2325 -1.77121,4.01433 -2.15244,5.83516 -0.4986,2.38144 -0.38232,7.02364 0.23527,9.39271 0.53134,2.03819 1.73729,5.02708 2.02832,5.02708 0.0899,0 0.49814,-0.74414 0.90723,-1.65364 z m -40.76695,-2.99897 c -0.95864,-3.53599 -0.75283,-9.28078 0.45419,-12.6776 0.11341,-0.31917 -0.37812,0.01 -1.23861,0.82919 -3.08655,2.93878 -6.02013,4.65841 -9.82072,5.7568 l -2.18926,0.63272 1.19062,0.30813 c 4.49188,1.16251 8.04872,3.19626 10.91278,6.23979 0.60369,0.64151 1.13388,1.13012 1.1782,1.0858 0.0443,-0.0443 -0.17492,-1.02299 -0.4872,-2.17483 z m 37.78159,0.76715 c -1.2703,-3.94484 -1.2373,-9.47136 0.077,-12.88613 0.16178,-0.42036 0.25307,-0.80538 0.20286,-0.8556 -0.0502,-0.0502 -0.76778,0.56392 -1.59459,1.36475 -2.76496,2.67808 -7.39013,5.22502 -10.56359,5.81705 -1.23002,0.22947 -1.08584,0.53126 0.36461,0.7632 2.92819,0.46824 7.63083,3.13432 10.26706,5.82074 0.79183,0.80691 1.48857,1.41824 1.54831,1.35851 0.0597,-0.0597 -0.076,-0.68187 -0.30161,-1.38252 z m 7.33679,-6.90085 c 2.36828,-6.91415 3.41077,-13.27326 3.41503,-20.8314 0.004,-7.71019 -1.03324,-14.14237 -3.39234,-21.02973 -1.15533,-3.37298 -2.76292,-7.24352 -2.93645,-7.06999 -0.0497,0.0497 0.0844,0.91562 0.2981,1.92422 0.51399,2.42629 0.50118,6.55763 -0.0277,8.92535 -0.23394,1.04738 -0.84338,2.88658 -1.35432,4.08713 l -0.92896,2.18281 0.92896,2.18282 c 2.39917,5.63738 2.40005,11.7797 0.002,17.30636 l -0.93661,2.15896 0.95164,2.21562 c 0.52339,1.2186 1.134,3.08259 1.35689,4.14219 0.51159,2.43201 0.51333,6.49782 0.004,8.90333 -0.21575,1.01859 -0.38191,1.91156 -0.36925,1.98438 0.0693,0.39857 1.96502,-4.09341 2.98871,-7.08205 z m -57.10203,-0.0344 c 2.79295,-0.57644 5.82508,-1.9052 8.17663,-3.58324 1.74916,-1.24817 4.43959,-4.0225 5.24893,-5.41261 l 0.47798,-0.82098 h -1.29555 c -3.38001,0 -8.88453,2.25174 -12.07566,4.93981 -1.71218,1.44226 -4.38579,4.56913 -4.38579,5.12932 0,0.37536 1.18974,0.29746 3.85346,-0.2523 z m 32.65904,0.33893 c 0,-0.39376 -1.94228,-2.75101 -3.49453,-4.24115 -3.0157,-2.89503 -6.86992,-4.93239 -10.64313,-5.62601 -1.68764,-0.31023 -3.58943,-0.38326 -3.58943,-0.13783 0,0.47393 1.83379,2.67178 3.67214,4.40117 3.0301,2.8505 6.9634,4.79809 11.09978,5.49611 1.58023,0.26666 2.95517,0.31678 2.95517,0.10771 z m 4.23333,-0.21181 c 5.41073,-0.97164 10.78924,-4.37659 13.72234,-8.68718 l 0.85517,-1.25677 -1.26948,0.004 c -0.69822,0.002 -2.04339,0.18283 -2.98928,0.40152 -4.80328,1.11049 -8.73619,3.53614 -11.96317,7.37837 -2.24994,2.67892 -2.12902,2.83776 1.64442,2.16014 z m -3.18583,-0.88197 c 2.64964,-5.69221 2.74499,-12.59758 0.24841,-17.98968 l -0.82781,-1.78792 -0.75866,1.5935 c -2.46824,5.18434 -2.51717,12.26485 -0.12093,17.49892 0.35574,0.77703 0.75334,1.41279 0.88355,1.41279 0.13021,0 0.38916,-0.32743 0.57544,-0.72761 z m -31.87222,-5.62187 c 1.73054,-1.19065 5.35705,-2.84661 7.04443,-3.21668 1.59539,-0.3499 2.27254,-0.7507 1.27747,-0.75613 -1.10464,-0.006 -4.91893,-1.46726 -6.89598,-2.64181 -1.03631,-0.61566 -2.76318,-1.95433 -3.83749,-2.97482 -1.07431,-1.02049 -1.9533,-1.79982 -1.9533,-1.73184 0,0.068 0.24829,1.06539 0.55175,2.21645 0.7732,2.93284 0.77525,7.63666 0.005,10.53569 -0.30599,1.15107 -0.55635,2.18047 -0.55635,2.28757 0,0.1071 0.70491,-0.49502 1.56645,-1.33804 0.86155,-0.84303 2.12084,-1.9142 2.79842,-2.38039 z m 28.90119,1.85156 c -0.9815,-3.56695 -0.74759,-9.39959 0.51694,-12.88993 0.094,-0.25934 -0.59292,0.24967 -1.52639,1.13114 -2.93265,2.76926 -5.79085,4.41876 -9.55993,5.51714 -1.20531,0.35125 -2.01287,0.6925 -1.79459,0.75834 0.21828,0.0658 1.28984,0.38889 2.38125,0.7179 3.50249,1.05582 6.55885,2.91045 9.11217,5.52935 0.71883,0.73729 1.33163,1.31351 1.36178,1.28048 0.0301,-0.033 -0.19091,-0.95301 -0.49123,-2.04442 z m 9.84299,-2.58725 c 1.23214,-0.75826 3.13926,-1.63249 4.45895,-2.044 1.26828,-0.39547 2.48456,-0.77816 2.70284,-0.85041 0.21828,-0.0723 -0.41105,-0.35747 -1.39851,-0.6338 -3.76138,-1.05259 -7.22372,-3.04744 -9.85333,-5.67705 -0.79016,-0.79016 -1.48629,-1.43666 -1.54696,-1.43666 -0.0607,0 0.12998,0.74414 0.42365,1.65365 0.38805,1.20184 0.56657,2.62955 0.6534,5.22552 0.10491,3.13692 0.0434,3.86729 -0.50502,5.99786 l -0.62448,2.42599 1.76824,-1.66807 c 0.97253,-0.91744 2.73708,-2.2643 3.92122,-2.99303 z m -26.70488,-3.39652 c 0,-0.41824 -2.02367,-2.8452 -3.65784,-4.38679 -2.99526,-2.82558 -6.29159,-4.54962 -10.26995,-5.37137 -1.98273,-0.40955 -3.79929,-0.52172 -3.79929,-0.23462 0,0.41824 2.02367,2.8452 3.65783,4.38679 2.96327,2.7954 6.39445,4.57409 10.36508,5.37315 1.87161,0.37665 3.70417,0.49184 3.70417,0.23284 z m 6.31648,-0.63926 c 2.31506,-0.64153 4.62151,-1.76538 6.81421,-3.32029 1.72903,-1.22611 4.40256,-3.99452 5.23129,-5.41693 l 0.50261,-0.86267 -1.82552,0.16187 c -3.8615,0.34241 -7.62426,1.83641 -10.86379,4.31346 -2.20281,1.68434 -5.11695,4.96335 -5.11695,5.75763 0,0.35285 3.00665,-0.009 5.25815,-0.63307 z m 30.80629,-0.0149 c -0.75463,-1.29013 -3.1712,-3.85052 -4.80448,-5.09042 -2.21509,-1.68159 -3.69374,-2.46393 -6.31962,-3.34369 -2.50118,-0.83796 -6.15492,-1.3532 -6.15492,-0.86794 0,0.15154 0.65161,1.10832 1.44802,2.12616 2.30223,2.94235 5.80738,5.4668 9.2838,6.6863 1.88889,0.66261 4.63605,1.24778 6.01804,1.28189 l 1.00714,0.0249 -0.47798,-0.81715 z m -36.07527,-0.4396 c 2.66054,-5.71565 2.75488,-12.58169 0.24717,-17.98969 l -0.82907,-1.78792 -0.76874,1.66673 c -1.16602,2.52812 -1.59144,4.39231 -1.74141,7.63096 -0.18253,3.94197 0.27305,6.50139 1.78521,10.02912 0.58617,1.36748 0.83947,1.45485 1.30684,0.4508 z m 38.04648,-1.32292 c 1.16918,-2.98126 1.50099,-4.84586 1.47134,-8.26823 -0.0288,-3.3269 -0.54482,-5.79455 -1.79807,-8.59896 l -0.70942,-1.5875 -0.62193,1.2105 c -2.24753,4.37454 -2.7069,10.4713 -1.16576,15.47197 0.63573,2.06281 1.46344,3.82274 1.79785,3.82274 0.122,0 0.5837,-0.92274 1.02599,-2.05052 z m -40.98395,-2.6021 c -0.43342,-1.5987 -0.57077,-2.87685 -0.58044,-5.40155 -0.012,-3.14917 0.052,-3.58355 1.0541,-7.14375 0.14575,-0.51783 -0.26307,-0.24263 -1.88278,1.26741 -2.94837,2.74872 -7.13766,5.02132 -10.14182,5.50171 -1.29948,0.20779 -1.24382,0.50621 0.14268,0.76488 3.25661,0.60756 7.73046,3.11031 10.37231,5.80246 0.79184,0.80692 1.47661,1.43021 1.52172,1.38511 0.0451,-0.0451 -0.17349,-1.02443 -0.48577,-2.17627 z m 7.76706,-0.98633 c 2.06018,-1.57798 5.58295,-3.33971 7.74895,-3.87525 0.72761,-0.1799 1.50151,-0.38571 1.71979,-0.45735 0.21829,-0.0716 -0.49363,-0.35922 -1.58204,-0.63907 -3.67713,-0.94544 -7.23509,-2.98052 -9.94013,-5.68556 -0.79332,-0.79332 -1.44241,-1.38969 -1.44241,-1.32526 0,0.0644 0.25239,1.16836 0.56086,2.45315 0.75093,3.12765 0.74413,7.32439 -0.0166,10.24967 -0.70768,2.72128 -0.69153,2.83661 0.23909,1.70761 0.43084,-0.52269 1.65146,-1.61526 2.7125,-2.42794 z m 29.78725,1.26952 c -0.42954,-1.45115 -0.55342,-2.64416 -0.57655,-5.55245 -0.028,-3.51754 0.20719,-5.16683 1.05631,-7.40833 0.11108,-0.29324 -0.58128,0.19792 -1.55288,1.1016 -0.96434,0.89693 -2.3049,2.01026 -2.97903,2.47407 -1.74162,1.19827 -5.28618,2.79546 -7.07208,3.1867 -0.83675,0.18332 -1.52136,0.41989 -1.52136,0.52573 0,0.10585 0.50602,0.26902 1.12448,0.36263 1.62712,0.24625 5.10721,1.71867 6.94401,2.93798 0.87242,0.57913 2.3607,1.78638 3.3073,2.68279 0.9466,0.8964 1.74264,1.60906 1.76899,1.58369 0.0264,-0.0254 -0.19829,-0.87786 -0.49919,-1.89441 z m -49.64717,-6.33152 c 2.47727,-0.52506 5.56975,-1.81815 7.64051,-3.19478 1.87505,-1.24653 5.08114,-4.46391 5.91887,-5.93971 l 0.5026,-0.88541 -1.88059,0.17479 c -2.0017,0.18603 -5.57853,1.20782 -7.32668,2.09299 -2.90153,1.46918 -6.09771,4.19733 -7.77716,6.63833 -0.45199,0.65695 -0.8218,1.2623 -0.8218,1.34522 0,0.2702 1.94463,0.15 3.74425,-0.23143 z m 32.32019,-0.44223 c -1.62287,-2.79914 -6.3349,-6.59539 -9.95763,-8.02236 -2.75706,-1.086 -7.3214,-1.85557 -7.3214,-1.23443 0,0.55036 3.02373,4.04033 4.55688,5.25953 3.57106,2.83979 8.32405,4.73167 12.06069,4.80065 l 1.13943,0.021 z m 6.42233,0.15185 c 2.10646,-0.54125 5.1245,-1.99279 7.15285,-3.44019 1.69494,-1.20948 4.18252,-3.79308 5.20117,-5.40192 l 0.56385,-0.89055 -1.7568,0.16405 c -5.71811,0.53397 -11.4017,3.6344 -14.7997,8.07333 -0.70252,0.91773 -1.27731,1.79738 -1.27731,1.95477 0,0.36006 2.71351,0.10643 4.91594,-0.45949 z m -4.66813,-1.24565 c 2.51524,-5.59209 2.35744,-12.92858 -0.39159,-18.20559 l -0.47435,-0.91056 -0.74471,1.59351 c -2.47083,5.287 -2.49503,12.18749 -0.0617,17.60957 0.3867,0.8617 0.75384,1.56672 0.81585,1.56672 0.062,0 0.44745,-0.74415 0.85654,-1.65365 z m -31.7559,-5.12808 c 1.90196,-1.27962 4.45536,-2.41742 6.75011,-3.00785 1.02934,-0.26484 1.69293,-0.54015 1.47465,-0.61179 -0.21828,-0.0717 -0.99219,-0.27834 -1.71979,-0.45932 -3.21523,-0.79975 -7.24587,-3.14356 -9.80239,-5.70008 -0.79332,-0.79332 -1.44241,-1.38969 -1.44241,-1.32525 0,0.0644 0.25551,1.16835 0.56779,2.45314 0.77801,3.20092 0.77769,7.34524 -7.9e-4,10.33263 -0.31185,1.1967 -0.567,2.25869 -0.567,2.35998 0,0.1013 0.74414,-0.54974 1.65365,-1.44674 0.9095,-0.89701 2.29828,-2.06463 3.08618,-2.59472 z m 28.54151,2.14771 c -0.43557,-1.4668 -0.55256,-2.6128 -0.56681,-5.55244 -0.0169,-3.48844 0.22473,-5.17177 1.07172,-7.46598 0.0957,-0.25934 -0.72598,0.37805 -1.82604,1.41643 -1.10008,1.03837 -2.84802,2.39167 -3.88432,3.00732 -1.93503,1.14958 -5.78404,2.63551 -6.84307,2.64181 -1.16575,0.007 -0.56454,0.40759 1.31105,0.8737 3.45949,0.85973 7.45365,3.22055 10.11498,5.97864 0.57263,0.59344 1.07044,1.04969 1.10624,1.01389 0.0358,-0.0358 -0.18189,-0.89682 -0.48375,-1.91337 z m 4.9289,1.32325 c 0.71606,-1.09284 4.22328,-3.71785 6.46941,-4.84207 1.15487,-0.57803 2.94487,-1.26867 3.97777,-1.53475 1.0329,-0.26608 1.878,-0.55266 1.878,-0.63683 0,-0.0842 -0.69434,-0.29646 -1.54297,-0.47174 -3.12616,-0.6457 -8.18058,-3.60961 -10.46208,-6.13495 -0.52698,-0.58331 -1.01271,-1.06056 -1.0794,-1.06056 -0.0667,0 0.0361,0.44648 0.22842,0.99218 1.13624,3.22419 1.24038,9.48286 0.21131,12.70001 -0.55201,1.72572 -0.42363,2.12294 0.31954,0.98871 z m -22.25413,-8.09354 c -1.42764,-2.4521 -5.15362,-5.68591 -8.46082,-7.34322 -2.78607,-1.39616 -8.8182,-2.72586 -8.8182,-1.94385 0,0.15609 0.69243,1.15514 1.53873,2.22012 3.56532,4.48658 9.77129,7.75048 14.94654,7.86081 l 1.27173,0.0271 z m 5.42015,0.40287 c 2.61669,-0.53647 5.09288,-1.57791 7.40248,-3.11333 1.95841,-1.30194 5.31656,-4.64492 6.00676,-5.97962 l 0.41768,-0.8077 h -0.77727 c -1.4235,0 -4.69059,0.74397 -6.70918,1.52779 -2.48479,0.96485 -5.247,2.78292 -7.20902,4.74494 -1.3617,1.3617 -3.04521,3.51515 -3.04521,3.89526 0,0.28032 1.86326,0.15304 3.91376,-0.26734 z m 31.50239,-1.19305 c -2.08656,-2.97458 -5.39554,-5.56716 -9.03188,-7.07645 -2.86152,-1.18769 -7.59885,-2.0578 -7.59885,-1.39567 0,0.42628 2.27139,3.31535 3.46231,4.40385 3.62646,3.31457 8.78864,5.55401 13.0249,5.65043 l 1.27367,0.029 z m -35.29574,0.0471 c 1.60363,-3.1646 2.32004,-8.01505 1.75479,-11.8808 -0.42183,-2.8849 -1.89598,-7.19265 -2.46139,-7.19265 -0.38096,0 -1.51308,2.80476 -2.07041,5.12931 -0.64368,2.68475 -0.6845,6.85494 -0.093,9.50283 0.38682,1.73165 1.85923,5.74078 2.10839,5.74078 0.0567,0 0.39946,-0.58476 0.76163,-1.29947 z m 37.93465,-1.02053 c 1.15546,-3.0168 1.48132,-4.87136 1.45193,-8.26334 -0.0187,-2.15706 -0.18375,-3.63217 -0.56707,-5.06785 -0.50707,-1.89916 -1.7323,-4.72173 -2.04963,-4.72173 -0.28524,0 -1.44983,2.87752 -1.99063,4.91852 -0.76095,2.87191 -0.76145,7.35797 -0.001,10.24966 0.63083,2.39923 1.84882,5.25434 2.15956,5.06229 0.11741,-0.0726 0.56604,-1.05246 0.99696,-2.17755 z m -41.00855,-2.6057 c -0.83177,-2.94067 -0.83579,-7.8316 -0.009,-10.75382 0.3196,-1.12941 0.58109,-2.13825 0.58109,-2.24186 0,-0.10361 -0.80367,0.59579 -1.78593,1.55423 -2.79581,2.728 -5.2281,4.1816 -8.7974,5.25756 -1.09141,0.329 -2.16297,0.65206 -2.38125,0.7179 -0.21828,0.0658 0.58928,0.40709 1.79459,0.75834 3.75297,1.09368 7.33125,3.19288 9.83058,5.76711 0.64576,0.66512 1.2153,1.16813 1.26562,1.1178 0.0503,-0.0503 -0.17397,-1.03009 -0.49845,-2.17726 z m 10.06719,-2.48312 c 1.97016,-1.17045 5.79015,-2.63574 6.88717,-2.64181 1.02583,-0.006 0.41948,-0.32813 -1.56436,-0.83194 -3.32183,-0.84359 -6.88525,-2.89615 -9.59223,-5.52521 -0.83675,-0.81266 -1.52136,-1.40147 -1.52136,-1.30847 0,0.093 0.24678,1.11088 0.5484,2.26194 0.76413,2.91615 0.76969,7.1069 0.0136,10.24968 -0.3091,1.28479 -0.562,2.40126 -0.562,2.48103 0,0.0798 0.87898,-0.68991 1.9533,-1.7104 1.07431,-1.0205 2.80118,-2.35916 3.83748,-2.97482 z m 27.97694,4.3576 c -1.49296,-3.89059 -1.48453,-10.52995 0.0185,-14.60121 0.0958,-0.25934 -0.73291,0.38464 -1.84146,1.43107 -2.48007,2.34109 -5.32263,4.037 -8.347,4.97993 -1.26435,0.3942 -2.47742,0.77358 -2.6957,0.84308 -0.21828,0.0695 0.60766,0.41905 1.83541,0.77678 1.22775,0.35773 3.14334,1.1244 4.25686,1.70372 2.09244,1.08861 5.1433,3.42623 5.99135,4.59068 0.53625,0.73633 1.02484,0.90874 0.78202,0.27595 z m -49.85812,-7.91622 c 4.7688,-1.01069 9.08759,-3.72416 12.2563,-7.70057 0.79907,-1.00276 1.45285,-1.92951 1.45285,-2.05946 0,-0.13363 -0.75781,-0.15511 -1.74451,-0.0494 -4.46208,0.47785 -8.96022,2.50696 -12.13967,5.47622 -1.75449,1.6385 -3.8429,4.11356 -3.8429,4.55437 0,0.28658 2.19146,0.16598 4.01793,-0.22112 z m 32.08722,-0.3435 c -3.29284,-5.11714 -9.2798,-8.70715 -15.79838,-9.47331 -1.00668,-0.11832 -1.52136,-0.0841 -1.52136,0.1013 0,0.5864 2.63081,3.68149 4.3858,5.15981 3.20556,2.70022 8.53268,4.88983 11.98266,4.92524 l 1.41949,0.0146 -0.46821,-0.7276 z m 5.86137,0.20921 c 2.67311,-0.6409 4.66063,-1.51064 6.98839,-3.05813 1.84666,-1.22766 5.0362,-4.42787 5.89494,-5.91467 0.4771,-0.82603 0.47686,-0.82755 -0.13229,-0.82556 -1.26012,0.004 -4.11754,0.58183 -6.03423,1.21997 -2.25262,0.74999 -4.77753,2.16768 -6.81203,3.82481 -1.35753,1.10573 -4.30047,4.54723 -4.30047,5.02902 0,0.40341 2.11772,0.27071 4.39569,-0.27544 z m -4.25054,-1.09448 c 1.22519,-2.41779 1.77427,-5.06124 1.80832,-8.70588 0.0189,-2.02577 -0.1099,-3.87116 -0.33247,-4.7625 -0.59435,-2.38014 -1.90755,-5.59298 -2.24089,-5.48247 -0.45373,0.15041 -1.74531,3.4217 -2.20351,5.58102 -0.52141,2.45723 -0.50885,6.68837 0.0268,9.02958 0.5205,2.27492 1.80467,5.68854 2.13998,5.68854 0.0652,0 0.42597,-0.60673 0.80175,-1.34829 z m -31.82504,-5.23076 c 1.91758,-1.30831 4.14204,-2.33775 6.58448,-3.04718 1.97289,-0.57305 2.12413,-0.66022 1.4152,-0.81575 -3.828,-0.83982 -8.02088,-3.07735 -10.8645,-5.79783 -0.93676,-0.8962 -1.70321,-1.55698 -1.70321,-1.4684 0,0.0886 0.25042,1.10284 0.55649,2.25391 0.776,2.91836 0.776,7.61733 0,10.53569 -0.30607,1.15106 -0.55649,2.1522 -0.55649,2.22475 0,0.0726 0.74414,-0.5784 1.65365,-1.44656 0.9095,-0.86815 2.22098,-1.96554 2.91438,-2.43863 z m 28.71599,1.94503 c -0.42357,-1.43338 -0.55282,-2.65006 -0.57582,-5.42015 -0.0282,-3.40064 0.12511,-4.47897 1.07212,-7.53978 0.0918,-0.29679 -0.81828,0.39892 -2.07673,1.5875 -2.5601,2.41798 -5.76096,4.26006 -8.92096,5.13396 -1.07575,0.2975 -2.00068,0.58568 -2.05539,0.6404 -0.0547,0.0547 0.68115,0.29212 1.63525,0.52757 3.53451,0.87223 7.68728,3.28189 10.29636,5.9745 0.57263,0.59096 1.07044,1.04518 1.10624,1.00938 0.0358,-0.0358 -0.18068,-0.89682 -0.48107,-1.91338 z m 5.84277,0.5083 c 2.69036,-2.67792 6.11283,-4.60333 10.21801,-5.74843 0.72954,-0.2035 1.1449,-0.42857 0.92604,-0.5018 -0.21828,-0.073 -1.40891,-0.4453 -2.64583,-0.82727 -2.93121,-0.90516 -5.76515,-2.58815 -8.22266,-4.8832 l -1.97921,-1.84837 0.6227,2.41896 c 0.54646,2.12275 0.60808,2.85634 0.50325,5.99083 -0.0868,2.59597 -0.26535,4.02368 -0.6534,5.22552 -0.29367,0.90951 -0.47133,1.65365 -0.3948,1.65365 0.0765,0 0.80818,-0.66595 1.6259,-1.47989 z m -23.31187,-7.44442 c -2.67833,-4.00761 -7.25464,-7.22019 -12.11075,-8.50177 -2.46673,-0.651 -5.02708,-0.96211 -5.02708,-0.61085 0,0.43511 2.29422,3.33722 3.56201,4.50583 2.383,2.19658 6.02378,4.20493 9.13799,5.04077 1.17958,0.31659 4.7978,0.77734 4.99965,0.63666 0.0577,-0.0402 -0.19514,-0.52198 -0.56182,-1.07064 z m 7.30761,0.17969 c 4.14936,-1.26033 7.79768,-3.74338 10.52156,-7.16099 0.85003,-1.06651 1.5455,-2.04543 1.5455,-2.17537 0,-0.13195 -0.67163,-0.15731 -1.52136,-0.0574 -3.75148,0.44093 -7.28493,1.742 -10.28485,3.78704 -2.15815,1.4712 -5.92088,5.49902 -5.92088,6.338 0,0.36723 3.55615,-0.0922 5.66003,-0.73124 z m 30.04424,-0.40456 c -3.3175,-4.82182 -9.24522,-8.2762 -15.39749,-8.97288 -1.82343,-0.20648 -1.88493,-0.0389 -0.61876,1.68594 3.50168,4.77026 10.11689,8.43467 15.31584,8.48405 l 1.53407,0.0146 -0.83366,-1.21168 z m -34.79944,-2.26296 c 1.72854,-5.22379 1.54777,-10.23491 -0.55905,-15.49766 -0.37157,-0.92816 -0.79868,-1.64653 -0.94913,-1.59638 -0.4108,0.13693 -1.76548,3.70796 -2.21941,5.85051 -0.28297,1.33561 -0.36292,2.81228 -0.27401,5.06087 0.13278,3.35787 0.56338,5.35523 1.70098,7.89015 l 0.69585,1.55057 0.46828,-0.61932 c 0.25755,-0.34062 0.76897,-1.52806 1.13649,-2.63874 z m -3.65755,-0.95595 c -1.08506,-3.29076 -1.15432,-7.66792 -0.18161,-11.47679 0.27418,-1.0736 0.46886,-1.98401 0.43263,-2.02312 -0.0362,-0.0391 -0.84693,0.6761 -1.80155,1.58936 -2.1939,2.09885 -5.24368,3.91756 -8.13216,4.84955 -1.23693,0.3991 -2.48102,0.80583 -2.76465,0.90384 -0.3714,0.12834 -0.001,0.30609 1.32292,0.63532 3.59059,0.89269 8.14634,3.57648 10.43756,6.14877 0.50932,0.5718 0.96555,0.9477 1.01384,0.83532 0.0483,-0.11237 -0.0988,-0.77038 -0.32698,-1.46225 z m 8.57356,-2.36243 c 1.90567,-1.29574 4.3178,-2.41928 6.62232,-3.0846 l 2.1417,-0.61831 -1.80232,-0.47848 c -3.68888,-0.97932 -6.80585,-2.72457 -9.6981,-5.43012 -0.96883,-0.9063 -1.76023,-1.54487 -1.75866,-1.41904 0.002,0.12582 0.18418,0.82408 0.40579,1.55169 0.93803,3.07982 0.93278,8.41124 -0.0114,11.59066 -0.21849,0.73572 -0.39725,1.454 -0.39725,1.59618 0,0.14217 0.74414,-0.45181 1.65365,-1.31997 0.9095,-0.86815 2.18942,-1.94276 2.84427,-2.38801 z m 26.28798,-0.13603 c -1.14295,-1.50054 -3.62602,-4.27968 -5.51793,-6.17588 -10.1363,-10.15923 -22.99356,-16.521992 -37.38175,-18.499347 -3.52765,-0.484801 -3.57517,-0.486859 -3.36434,-0.145733 0.0899,0.145521 0.34454,0.264583 0.5658,0.264583 0.69441,0 3.86207,1.36304 5.57149,2.397405 2.46646,1.49245 3.90927,2.789526 5.90518,5.308702 l 1.80811,2.28214 2.07054,0.18656 c 2.57823,0.2323 6.29223,1.43819 8.55283,2.77701 2.63951,1.5632 4.38307,3.10209 6.38468,5.63516 1.75661,2.22304 1.87166,2.31511 2.89287,2.31511 3.97028,0 9.55431,2.33798 13.21176,5.53164 0.65469,0.57168 1.23276,0.99699 1.2846,0.94515 0.0518,-0.0518 -0.84088,-1.32197 -1.98384,-2.8225 z m -46.39632,-4.36813 c 2.29615,-0.53322 6.0994,-2.35522 8.13231,-3.8959 2.10166,-1.59278 5.40927,-5.48479 5.00489,-5.88917 -0.0823,-0.0823 -1.28672,0.0424 -2.67643,0.27719 -4.44219,0.7505 -8.2795,2.58147 -11.31326,5.39811 -1.32924,1.2341 -3.64542,4.14134 -3.64542,4.57567 0,0.28516 2.28125,0.0489 4.49791,-0.4659 z m 32.01205,0.5154 c -10e-4,-0.10914 -0.6039,-0.99904 -1.33889,-1.97756 -2.82717,-3.76392 -7.39021,-6.71164 -11.95628,-7.72374 -2.57436,-0.57062 -4.42938,-0.74519 -4.42938,-0.41683 0,0.48688 1.97462,2.97421 3.50531,4.41548 3.40857,3.20944 7.14938,4.90591 12.63428,5.72968 1.20109,0.18039 1.58753,0.1738 1.58496,-0.027 z m -30.55168,-6.94888 c 1.72672,-1.18801 4.72918,-2.52887 6.88813,-3.07614 l 1.83796,-0.4659 -1.32291,-0.35381 c -4.09939,-1.09635 -7.23303,-2.78947 -10.09303,-5.453301 -1.07003,-0.996641 -1.94552,-1.759827 -1.94552,-1.69597 0,0.06386 0.25042,1.057884 0.55649,2.208949 0.776,2.918362 0.776,7.617332 0,10.535692 -0.30607,1.15106 -0.55649,2.14698 -0.55649,2.21315 0,0.0662 0.76726,-0.59743 1.70502,-1.47466 0.93776,-0.87723 2.25642,-1.97433 2.93035,-2.43801 z m 11.76626,-3.89906 c -0.001,-0.10914 -0.60393,-0.99908 -1.33895,-1.97764 -2.61983,-3.487881 -6.70992,-6.198187 -11.2495,-7.454495 -2.62906,-0.727582 -5.13609,-1.02444 -5.13609,-0.608164 0,0.793017 3.53987,4.612618 5.68854,6.138059 2.07569,1.47362 3.80817,2.32863 6.17543,3.04766 2.63571,0.80057 5.86591,1.2716 5.86057,0.85458 z"
       id="path248" /></g></svg>
